<svg xmlns="http://www.w3.org/2000/svg" viewBox="0 0 17 16" aria-hidden="true"> <path fill-rule="evenodd" clip-rule="evenodd" d="M2.65 13.8H1.332a.8.8 0 1 1 0-1.6h1.316a2.801 2.801 0 0 1 5.369 0h7.332a.8.8 0 0 1 0 1.6H8.018a2.801 2.801 0 0 1-5.369 0zm3.883-.785a1.2 1.2 0 1 1 0-.03v.03zM16.15 3a.8.8 0 0 0-.8-.8H8.018a2.801 2.801 0 0 0-5.369 0H1.333a.8.8 0 0 0 0 1.6h1.316a2.801 2.801 0 0 0 5.369 0h7.332a.8.8 0 0 0 .8-.8zM5.333 1.8a1.2 1.2 0 0 1 1.2 1.185v.03a1.2 1.2 0 1 1-1.2-1.215zm-4 5.4a.8.8 0 0 0 0 1.6h7.333a2.801 2.801 0 0 0 5.368 0h1.316a.8.8 0 0 0 0-1.6h-1.316a2.801 2.801 0 0 0-5.368 0H1.333zm10.017-.4a1.2 1.2 0 1 0 0 2.4 1.2 1.2 0 0 0 0-2.4z" fill="#fff"></path> </svg>